<?xml version="1.0" encoding="UTF-8" standalone="no"?>
<!-- Created with Inkscape (http://www.inkscape.org/) -->

<svg
   width="200mm"
   height="200.05899mm"
   viewBox="0 0 200 200.05899"
   version="1.1"
   id="svg32414"
   inkscape:version="1.2.2 (b0a8486541, 2022-12-01)"
   sodipodi:docname="Logo P+R Rennes.svg"
   xmlns:inkscape="http://www.inkscape.org/namespaces/inkscape"
   xmlns:sodipodi="http://sodipodi.sourceforge.net/DTD/sodipodi-0.dtd"
   xmlns="http://www.w3.org/2000/svg"
   xmlns:svg="http://www.w3.org/2000/svg">
  <sodipodi:namedview
     id="namedview32416"
     pagecolor="#ffffff"
     bordercolor="#666666"
     borderopacity="1.0"
     inkscape:showpageshadow="2"
     inkscape:pageopacity="0.0"
     inkscape:pagecheckerboard="0"
     inkscape:deskcolor="#d1d1d1"
     inkscape:document-units="mm"
     showgrid="false"
     inkscape:zoom="0.5946522"
     inkscape:cx="-397.71147"
     inkscape:cy="-80.719452"
     inkscape:window-width="1680"
     inkscape:window-height="979"
     inkscape:window-x="-8"
     inkscape:window-y="-8"
     inkscape:window-maximized="1"
     inkscape:current-layer="layer1" />
  <defs
     id="defs32411" />
  <g
     inkscape:label="Calque 1"
     inkscape:groupmode="layer"
     id="layer1"
     transform="translate(-60.604488,-183.93432)">
    <g
       id="g849"
       transform="matrix(2.0197107,0,0,2.0197107,-61.799039,-187.55979)">
      <path
         fill-rule="nonzero"
         fill="#ffffff"
         fill-opacity="1"
         d="m 110.11638,183.93432 c -27.271284,0 -49.511895,22.2407 -49.511895,49.51191 0,27.27144 22.240611,49.51192 49.511895,49.51192 27.27122,0 49.51189,-22.24048 49.51189,-49.51192 0,-27.27121 -22.24067,-49.51191 -49.51189,-49.51191"
         id="path30151"
         style="display:inline;stroke-width:7.53122" />
      <path
         fill-rule="nonzero"
         fill="#014c97"
         fill-opacity="1"
         d="m 104.11491,206.41049 c -2.3535,-1.17629 -4.559938,-1.85304 -7.060532,-2.00034 h -0.353315 c -2.530034,0.14944 -4.70701,0.67674 -7.060514,2.00034 0,0 -0.676956,0.52944 -0.676956,1.02899 v 24.59414 c 0,0.64685 0.676956,1.00123 0.676956,1.00123 2.353504,1.14641 4.53048,1.67585 7.060514,1.67585 h 0.353315 c 2.500594,0 4.707032,-0.52944 7.060532,-1.85304 0,0 0.67696,-0.17079 0.67696,-1.00124 v -24.41758 c 0,-0.49955 -0.67696,-1.02899 -0.67696,-1.02899"
         id="path30153"
         style="display:inline;fill:#2b4794;fill-opacity:1;stroke-width:7.53122" />
      <path
         fill-rule="nonzero"
         fill="#014c97"
         fill-opacity="1"
         d="m 136.91691,242.59549 c -1.4709,-1.05888 -3.88326,-1.00124 -3.88326,-1.00124 h -3.94215 v 8.11963 h 4.14805 c 1.67691,0 3.67736,-1.05888 3.67736,-1.05888 z m 0,0"
         id="path30155"
         style="fill:#2b4794;fill-opacity:1;stroke-width:7.53122" />
      <path
         fill-rule="nonzero"
         fill="#014c97"
         fill-opacity="1"
         d="m 139.12332,262.15911 -8.61971,-8.73745 h -1.41219 v 8.29618 c 0,0 -0.912,0.44191 -1.91217,0.44191 -0.97071,0 -1.94163,-0.44191 -1.94163,-0.44191 v -23.91761 h 7.97247 c 0,0 4.44229,0.26472 7.53122,2.55945 v 10.59091 c 0,0 -2.58887,1.79326 -5.17772,2.17689 l 6.17802,6.38379 c 0,0 -0.70578,1.97045 -2.61831,2.64784 m -21.94643,-5.50147 h -5.1777 v 5.17783 c -0.58814,0.2946 -1.824,0.32449 -1.824,0.32449 0,0 -1.20618,-0.0213 -1.824,-0.32449 v -5.17783 h -5.17772 c -0.29439,-0.61697 -0.32385,-1.82315 -0.32385,-1.82315 0,0 0.0299,-1.20618 0.32385,-1.82315 h 5.17772 v -5.17782 c 0.61761,-0.29461 1.824,-0.3245 1.824,-0.3245 0,0 1.23564,0.0214 1.824,0.3245 v 5.17782 h 5.1777 c 0.29439,0.61697 0.32385,1.82315 0.32385,1.82315 0,0 -0.0299,1.20618 -0.32385,1.82315 M 96.701383,241.62478 c -3.177273,0 -5.883772,-0.49955 -8.237277,-1.35348 v 21.0343 c -0.823832,0.49955 -2.206415,0.85393 -3.589146,0.85393 -1.14726,0 -2.471156,-0.35438 -3.324278,-0.85393 v -57.74896 l 0.353315,-0.67674 c 1.500361,-1.17629 6.707519,-5.17782 14.797706,-5.17782 8.090187,0 13.326717,4.00089 14.974167,5.17782 l 0.32386,0.67674 v 32.50775 l -0.32386,0.67675 c -1.64745,1.17629 -6.88398,5.03052 -14.974167,4.88343 M 110.1167,183.93432 c -27.271305,0 -49.511895,22.2407 -49.511895,49.51191 0,27.30068 22.24059,49.54138 49.511895,49.54138 27.27122,0 49.51187,-22.2407 49.51187,-49.54138 0,-27.27121 -22.24065,-49.51191 -49.51187,-49.51191"
         id="path30157"
         style="fill:#2b4794;fill-opacity:1;stroke-width:7.53122" />
    </g>
  </g>
</svg>
