<?xml version="1.0" encoding="UTF-8" standalone="no"?>
<!-- Created with Inkscape (http://www.inkscape.org/) -->

<svg
   xmlns:dc="http://purl.org/dc/elements/1.1/"
   xmlns:cc="http://creativecommons.org/ns#"
   xmlns:rdf="http://www.w3.org/1999/02/22-rdf-syntax-ns#"
   xmlns:svg="http://www.w3.org/2000/svg"
   xmlns="http://www.w3.org/2000/svg"
   xmlns:sodipodi="http://sodipodi.sourceforge.net/DTD/sodipodi-0.dtd"
   xmlns:inkscape="http://www.inkscape.org/namespaces/inkscape"
   width="200"
   height="200"
   viewBox="0 0 200 200"
   id="svg11194"
   version="1.1"
   inkscape:version="0.91 r13725"
   sodipodi:docname="Logo covoitSTAR Rennes.svg">
  <defs
     id="defs11196">
    <clipPath
       clipPathUnits="userSpaceOnUse"
       id="clipPath5996">
      <path
         d="m 205.311,390.029 28.52,0 0,28.521 -28.52,0 0,-28.521 z"
         id="path5998"
         inkscape:connector-curvature="0" />
    </clipPath>
  </defs>
  <sodipodi:namedview
     id="base"
     pagecolor="#ffffff"
     bordercolor="#666666"
     borderopacity="1.0"
     inkscape:pageopacity="0.0"
     inkscape:pageshadow="2"
     inkscape:zoom="2.8"
     inkscape:cx="-7.9287629"
     inkscape:cy="83.626415"
     inkscape:document-units="px"
     inkscape:current-layer="layer1"
     showgrid="false"
     units="px"
     fit-margin-top="0"
     fit-margin-left="0"
     fit-margin-right="0"
     fit-margin-bottom="0"
     inkscape:window-width="1920"
     inkscape:window-height="1017"
     inkscape:window-x="-8"
     inkscape:window-y="-8"
     inkscape:window-maximized="1" />
  <metadata
     id="metadata11199">
    <rdf:RDF>
      <cc:Work
         rdf:about="">
        <dc:format>image/svg+xml</dc:format>
        <dc:type
           rdf:resource="http://purl.org/dc/dcmitype/StillImage" />
        <dc:title />
      </cc:Work>
    </rdf:RDF>
  </metadata>
  <g
     inkscape:label="Calque 1"
     inkscape:groupmode="layer"
     id="layer1"
     transform="translate(1143.5393,-513.04485)">
    <g
       id="g6000"
       transform="matrix(7.0102071,0,0,-7.0102071,-1143.5442,613.08068)"
       style="fill:#2b4794;fill-opacity:1">
      <path
         d="M 0,0 C 0,7.877 6.385,14.261 14.26,14.261 22.137,14.261 28.521,7.877 28.521,0 28.521,-7.876 22.137,-14.26 14.26,-14.26 6.385,-14.26 0,-7.876 0,0"
         style="fill:#2b4794;fill-opacity:1;fill-rule:nonzero;stroke:none"
         id="path6002"
         inkscape:connector-curvature="0" />
    </g>
    <g
       id="g6004"
       transform="matrix(7.0102071,0,0,-7.0102071,-1062.9359,576.56592)">
      <path
         d="m 0,0 c 0.627,0 1.136,-0.508 1.136,-1.136 0,-0.627 -0.509,-1.135 -1.136,-1.135 -0.627,0 -1.136,0.508 -1.136,1.135 C -1.136,-0.508 -0.627,0 0,0 m -4.126,-6.379 c 0,0.55 0.446,0.997 0.997,0.997 0.55,0 0.997,-0.447 0.997,-0.997 0,-0.55 -0.447,-0.997 -0.997,-0.997 -0.551,0 -0.997,0.447 -0.997,0.997 m 6.155,2.463 c -0.32,0.005 -0.346,0.01 -0.436,0.016 -0.021,0.122 -0.042,0.243 -0.062,0.366 -0.083,0.445 -0.475,0.933 -0.877,0.995 -0.435,0.067 -0.874,0.067 -1.308,0 -0.399,-0.062 -0.787,-0.542 -0.874,-0.984 -0.198,0.034 -1.135,0.07 -1.332,0.109 -0.197,0.041 -0.303,0.214 -0.235,0.388 0.336,0.869 0.673,2.305 1.01,3.377 0.069,0.216 0.287,0.425 0.486,0.456 2.891,0.44 5.831,0.44 8.721,0 0.199,-0.031 0.417,-0.24 0.486,-0.457 0.31,-0.984 0.6,-2.316 1.01,-3.376 C 8.686,-3.2 8.581,-3.373 8.383,-3.414 8.187,-3.453 7.249,-3.489 7.052,-3.523 6.964,-3.081 6.576,-2.601 6.177,-2.539 5.742,-2.472 5.304,-2.472 4.869,-2.539 4.467,-2.601 4.075,-3.089 3.992,-3.534 3.972,-3.657 3.951,-3.778 3.93,-3.9 3.84,-3.906 3.783,-3.916 3.494,-3.916 c -0.289,0 -1.146,-0.005 -1.465,0 m 5.627,-2.463 c 0,0.55 0.446,0.997 0.997,0.997 0.55,0 0.997,-0.447 0.997,-0.997 0,-0.55 -0.447,-0.997 -0.997,-0.997 -0.551,0 -0.997,0.447 -0.997,0.997 M 5.524,0 c 0.627,0 1.135,-0.508 1.135,-1.136 0,-0.627 -0.508,-1.135 -1.135,-1.135 -0.628,0 -1.136,0.508 -1.136,1.135 C 4.388,-0.508 4.896,0 5.524,0 m -10.828,-3.932 0.425,0 -0.307,-0.797 c -0.214,-0.559 -0.39,-1.505 -0.39,-2.103 l 0,-4.333 c 0,-0.698 0.571,-1.269 1.269,-1.269 0.698,0 1.269,0.571 1.269,1.269 l 0,0.692 c 1.828,-0.242 3.776,-0.372 5.8,-0.372 2.023,0 3.972,0.131 5.8,0.372 l 0,-0.692 c 0,-0.698 0.571,-1.269 1.269,-1.269 0.698,0 1.269,0.571 1.269,1.269 l 0,4.333 c 0,0.598 -0.176,1.544 -0.39,2.103 l -0.307,0.797 0.425,0 c 0.548,0 0.997,0.449 0.997,0.997 0,0.548 -0.449,0.997 -0.997,0.997 l -1.193,0 -1.317,3.154 c -0.215,0.558 -0.861,0.696 -1.436,0.86 0,0 -1.039,0.2 -4.12,0.2 -3.082,0 -4.12,-0.2 -4.12,-0.199 C -1.934,1.912 -2.58,1.774 -2.795,1.216 l -1.317,-3.154 -1.192,0 c -0.549,0 -0.997,-0.449 -0.997,-0.997 0,-0.548 0.448,-0.997 0.997,-0.997"
         style="fill:#ffffff;fill-opacity:1;fill-rule:nonzero;stroke:none"
         id="path6006"
         inkscape:connector-curvature="0" />
    </g>
  </g>
</svg>
