<?xml version="1.0" encoding="UTF-8" standalone="no"?>
<!-- Created with Inkscape (http://www.inkscape.org/) -->

<svg
   xmlns:dc="http://purl.org/dc/elements/1.1/"
   xmlns:cc="http://creativecommons.org/ns#"
   xmlns:rdf="http://www.w3.org/1999/02/22-rdf-syntax-ns#"
   xmlns:svg="http://www.w3.org/2000/svg"
   xmlns="http://www.w3.org/2000/svg"
   xmlns:sodipodi="http://sodipodi.sourceforge.net/DTD/sodipodi-0.dtd"
   xmlns:inkscape="http://www.inkscape.org/namespaces/inkscape"
   width="2000"
   height="422"
   viewBox="0 0 2000 421.99998"
   id="svg2"
   version="1.1"
   inkscape:version="0.91 r13725"
   sodipodi:docname="Logo TER.svg">
  <defs
     id="defs4">
    <linearGradient
       id="linearGradient128"
       spreadMethod="pad"
       gradientTransform="matrix(168.93624,0,0,-168.93624,118.06947,67.377436)"
       gradientUnits="userSpaceOnUse"
       y2="0"
       x2="1"
       y1="0"
       x1="0">
      <stop
         id="stop130"
         offset="0"
         style="stop-opacity:1;stop-color:#7c2270" />
      <stop
         id="stop132"
         offset="0.247191"
         style="stop-opacity:1;stop-color:#aa147e" />
      <stop
         id="stop134"
         offset="0.814607"
         style="stop-opacity:1;stop-color:#e41d25" />
      <stop
         id="stop136"
         offset="1"
         style="stop-opacity:1;stop-color:#e41d25" />
    </linearGradient>
    <clipPath
       id="clipPath144"
       clipPathUnits="userSpaceOnUse">
      <path
         inkscape:connector-curvature="0"
         id="path146"
         d="m 0,0 311.811,0 0,510.236 -311.811,0 z" />
    </clipPath>
  </defs>
  <sodipodi:namedview
     id="base"
     pagecolor="#ffffff"
     bordercolor="#666666"
     borderopacity="1.0"
     inkscape:pageopacity="0.0"
     inkscape:pageshadow="2"
     inkscape:zoom="0.3478488"
     inkscape:cx="922.85958"
     inkscape:cy="386.47968"
     inkscape:document-units="px"
     inkscape:current-layer="layer1"
     showgrid="false"
     inkscape:window-width="1440"
     inkscape:window-height="788"
     inkscape:window-x="0"
     inkscape:window-y="1"
     inkscape:window-maximized="1"
     units="px" />
  <metadata
     id="metadata7">
    <rdf:RDF>
      <cc:Work
         rdf:about="">
        <dc:format>image/svg+xml</dc:format>
        <dc:type
           rdf:resource="http://purl.org/dc/dcmitype/StillImage" />
        <dc:title></dc:title>
      </cc:Work>
    </rdf:RDF>
  </metadata>
  <g
     inkscape:label="Calque 1"
     inkscape:groupmode="layer"
     id="layer1"
     transform="translate(0,-630.36235)">
    <g
       id="g4504"
       transform="translate(0,-40.718729)">
      <g
         id="g10"
         inkscape:label="guide-tgv-loisir"
         transform="matrix(4.2937306,0,0,-4.2937306,-506.96031,938.6484)">
        <path
           d="m 121.17533,61.986208 c -1.88209,-0.07905 -3.10544,-0.948573 -3.10544,-2.808078 l 0,0 0,-82.902307 c 0,-1.445446 1.03515,-2.751616 2.63116,-2.751616 l 0,0 147.99251,0 c 1.32876,0 2.39025,0.120454 3.01511,1.874562 l 0,0 c 0,0 15.00026,46.943092 15.26375,47.790033 l 0,0 c 0.5571,1.772929 0.19574,2.672568 -1.31746,3.636198 l 0,0 C 237.45463,57.710099 165.3781,62.197002 132.64103,62.197002 l 0,0 c -4.69394,0 -8.57104,-0.0941 -11.4657,-0.210794"
           style="fill:url(#linearGradient128);stroke:none;stroke-width:1"
           id="path138"
           inkscape:connector-curvature="0" />
        <g
           id="g140"
           transform="matrix(3.7641803,0,0,3.7641803,-793.92701,-171.92372)"
           style="stroke-width:0.2656621">
          <g
             id="g142"
             clip-path="url(#clipPath144)"
             style="stroke-width:0.2656621">
            <g
               id="g148"
               transform="translate(267.3338,44.7764)"
               style="stroke-width:0.2656621">
              <path
                 d="m 0,0 c -0.55,0.641 -0.768,1.468 -0.632,2.39 0.324,2.199 2.464,3.589 5.327,3.589 0.603,0 1.224,-0.038 1.782,-0.109 L 7.043,7.529 C 6.353,7.635 5.517,7.68 4.697,7.68 2.158,7.68 -0.05,6.806 -1.481,5.265 -1.526,5.217 -1.572,5.218 -1.6,5.218 c -0.044,0 -0.074,0.008 -0.062,0.047 l 0.717,2.249 -2.096,0 -2.294,-7.197 c -0.73,2.124 -2.232,4.917 -4.069,7.197 l -2.251,0 -1.683,-5.239 c 0.846,-0.629 1.114,-1.083 1.335,-1.729 0.013,-0.038 0.04,-0.046 0.081,-0.046 0.041,0 0.061,0.01 0.072,0.046 0.016,0.05 1.468,4.553 1.468,4.553 1.481,-2.119 2.951,-4.907 3.739,-7.851 l 2.414,0 1.194,3.73 c 0.013,0.038 0.039,0.046 0.079,0.046 0.042,0 0.069,-0.011 0.074,-0.046 0.363,-2.342 2.692,-3.916 5.993,-3.916 2.134,0 4.063,0.56 4.543,0.817 l 1.251,3.94 4.804,0 0.489,1.526 -4.805,0 0.829,2.587 5.725,0 0.499,1.582 -8.042,0 -2.73,-8.533 C 5.095,-1.165 4.379,-1.237 3.631,-1.237 2.02,-1.237 0.73,-0.854 0,0 m -13.558,5.939 0.478,1.503 c -0.687,0.126 -1.178,0.191 -1.998,0.21 -2.636,0.061 -5.019,-0.666 -5.632,-2.206 -0.726,-1.826 1.334,-2.853 3.119,-3.699 1.417,-0.672 2.537,-1.311 2.143,-2.148 -0.306,-0.649 -1.309,-0.957 -2.767,-0.924 -1.263,0.03 -2.838,0.392 -4.079,1.017 l -0.738,-1.596 c 0.913,-0.424 2.795,-1 4.401,-1.037 3.016,-0.069 4.969,0.69 5.751,2.332 0.925,1.944 -1.37,3.007 -3.213,3.897 -1.443,0.697 -2.427,1.061 -2.19,1.762 0.28,0.83 1.731,1.145 3.046,1.115 0.665,-0.016 1.138,-0.101 1.679,-0.226"
                 style="fill:#ffffff;fill-opacity:1;fill-rule:nonzero;stroke:none;stroke-width:0.2656621"
                 id="path150"
                 inkscape:connector-curvature="0" />
            </g>
          </g>
        </g>
      </g>
      <g
         transform="matrix(1.8956588,0,0,1.8956588,-1082.8173,174.86193)"
         id="g4444">
        <g
           id="g4436">
          <path
             d="m 1039.6652,414.77349 -7.8526,0 c -0.9549,0 -2.4177,-0.79237 -3.0984,-0.79237 -0.2336,0 -0.5079,0.51808 -0.5079,2.93582 l 0,10.39221 c 0,10.23983 3.4438,14.92293 13.968,14.92293 9.2037,0 13.9985,-3.85009 13.9985,-13.72422 0,-11.07283 -6.7757,-13.73437 -16.5076,-13.73437 m -0.3962,-38.09462 c -4.0025,0 -7.7307,0.27429 -9.4779,0.51809 -1.3105,0.15238 -1.5848,0.833 -1.5848,2.69202 l 0,18.61049 c 0,1.63553 0.2743,2.30599 1.9809,2.30599 l 9.7624,0 c 7.9745,0 12.7795,-3.33201 12.7795,-12.53567 0,-7.98463 -4.2869,-11.59092 -13.4601,-11.59092 m 5.9935,80.07996 c -10.6766,0 -19.7177,-2.53964 -25.9856,-9.09192 -1.351,-1.18855 -1.8691,-1.31045 -7.0703,-1.31045 -1.9809,0 -2.2552,-0.39619 -2.2552,-2.14346 l 0,-77.65205 c 0,-2.14346 0.1117,-3.09837 0.7923,-3.09837 0.3962,0 1.4629,0.43682 1.8591,0.43682 2.4279,0 15.7153,-1.46283 27.0624,-1.46283 22.5012,0 32.3855,8.76684 32.3855,23.84215 0,7.86272 -3.0984,13.33819 -8.8075,16.7921 -1.0768,0.62983 -4.1244,1.70664 -4.1244,2.93583 0,1.18855 3.0476,2.10282 4.1244,2.499 8.5332,3.33201 12.9319,10.7884 12.9319,21.19076 0,16.66005 -11.6214,27.06242 -30.9126,27.06242"
             style="fill:#231f20;fill-opacity:1;fill-rule:nonzero;stroke:none"
             id="path4374"
             inkscape:connector-curvature="0" />
          <path
             d="m 1115.9763,376.95316 c -3.6063,0 -6.5015,0.1219 -8.2488,0.39618 -1.351,0.24381 -1.7472,0.91427 -1.7472,2.49901 0,1.74727 0.3962,5.20118 0.3962,8.13701 l 0,13.05375 c 0,3.34217 0.2742,4.57135 3.332,5.20118 1.9809,0.39619 4.9167,0.68063 7.5783,0.68063 9.0919,0 14.6791,-4.40882 14.6791,-15.31912 0,-10.00618 -5.3536,-14.64864 -15.9896,-14.64864 m 43.052,70.08392 0,5.59737 c 0,0.90411 -0.5486,1.46283 -1.3409,1.98092 -2.2654,1.18855 -5.2012,2.14346 -8.6958,2.14346 -9.4474,0 -14.3642,-3.7282 -19.8396,-13.61248 l -11.3065,-19.96157 c -1.0768,-1.86918 -1.7473,-2.41774 -3.6165,-2.81393 -1.859,-0.39618 -5.0386,-0.79236 -5.9935,-0.79236 -1.4629,0 -1.859,0.79236 -1.859,2.65138 l 0,31.47123 c 0,1.18855 -0.1219,1.86917 -1.473,1.86917 -2.6514,0 -8.645,-0.55872 -8.645,-0.55872 0,0 -5.5973,0.55872 -8.3706,0.55872 -0.5587,0 -0.9549,0 -0.9549,-0.68062 0,-1.06665 0.7923,-2.2552 0.7923,-3.33201 l 0,-84.99669 c 0,-1.58474 0.3962,-2.14346 1.4629,-2.41774 6.6741,-1.07681 17.5844,-1.70664 27.1843,-1.70664 22.2676,0 34.7626,9.72174 34.7626,28.21033 0,11.46902 -6.5116,20.27649 -14.3642,24.00468 -0.6705,0.28444 -1.4629,1.07681 -1.4629,1.86918 0,1.18855 2.5397,5.03865 10.118,17.17813 2.9358,4.64246 4.6831,6.38973 8.2487,6.38973 2.5397,0 3.4539,-1.06664 4.9269,-1.06664 0.5486,0 0.833,0.43681 0.833,1.06664 0,0.95491 -0.4063,4.92691 -0.4063,6.94846"
             style="fill:#231f20;fill-opacity:1;fill-rule:nonzero;stroke:none"
             id="path4376"
             inkscape:connector-curvature="0" />
          <path
             d="m 1234.5064,445.01553 c 0,0.94474 -0.2743,1.34093 -1.3511,1.34093 l -5.0793,0 c -1.5441,0 -2.2145,0.39618 -3.332,1.19871 -7.1821,6.54211 -14.8823,9.20366 -25.5487,9.20366 -19.2099,0 -33.7366,-8.80748 -33.7366,-28.37287 0,-15.31911 8.5332,-19.72793 8.5332,-24.28912 0,-3.29138 -3.1695,-6.38974 -3.1695,-14.24231 0,-18.37684 12.8912,-27.81414 32.6191,-27.81414 8.5231,0 16.5382,1.18855 21.587,3.332 0.833,0.23365 1.5034,0.79237 1.5034,1.81839 0,1.0768 -1.6253,6.27799 -1.6253,6.27799 l -0.3962,7.33448 c 0,0.79237 -0.3962,1.35109 -1.0768,1.35109 -1.4629,0 -5.9936,-4.56119 -17.9705,-4.56119 -10.6767,0 -16.1115,3.60628 -16.1115,12.8201 0,6.26783 2.1028,9.83349 7.5783,9.83349 l 16.5077,0 c 1.5847,0 2.1434,0.16254 2.1434,1.74727 0,2.10283 -0.3962,6.38974 -0.3962,6.38974 0,0 0.3962,4.01263 0.3962,5.99355 0,1.62537 -0.6806,1.62537 -1.9809,1.62537 l -20.0022,0 c -5.7193,0 -8.137,3.57582 -8.137,9.96555 0,10.95093 6.2678,14.51659 17.5743,14.51659 10.0062,0 15.9997,-3.56566 15.9997,-14.63849 0,-1.35109 0.1118,-1.74727 1.6254,-1.74727 1.859,0.16253 5.5974,0.27428 5.5974,0.27428 0,0 4.2462,-0.27428 6.3897,-0.27428 1.3003,0 1.4628,0.39618 1.4628,1.74727 l 0,10.11793 0.3962,9.05128 z"
             style="fill:#231f20;fill-opacity:1;fill-rule:nonzero;stroke:none"
             id="path4378"
             inkscape:connector-curvature="0" />
          <path
             d="m 1281.9672,455.40774 -28.769,0 -8.4113,0.55872 c -1.3105,0 -1.7067,-0.39619 -1.7067,-1.63553 0,-0.79237 0.2337,-6.89766 0.2337,-6.89766 0,0 -0.2337,-5.36373 -0.2337,-6.15609 0,-1.4222 0.1219,-1.81839 1.7067,-1.81839 l 5.0793,0 c 2.9358,0 3.332,-0.833 3.332,-4.96753 l 0,-48.76111 c 0,-1.47299 0.7923,-3.73835 0.7923,-4.805 0,-1.0768 -0.7923,-1.58473 -4.2462,-1.58473 l -6.6641,0 c -1.4729,0 -1.8691,-0.39619 -1.8691,-1.5949 0,-0.79236 0.3962,-6.54211 0.3962,-6.54211 0,0 -0.3962,-5.32309 -0.3962,-6.11546 0,-1.34093 0.1219,-1.74727 1.7066,-1.74727 l 28.6573,0 8.523,-0.50793 c 1.3511,0 1.7473,0.39619 1.7473,1.58474 0,0.79237 -0.3962,6.94846 -0.3962,6.94846 0,0 0.3962,5.31292 0.3962,6.10529 0,1.47299 -0.1524,1.86918 -1.7473,1.86918 l -5.0386,0 c -2.9358,0 -3.4844,0.79237 -3.4844,4.91674 l 0,48.64936 c 0,1.70664 -0.8025,4.12438 -0.8025,5.03865 0,1.07681 0.8025,1.51362 4.2869,1.51362 l 6.7859,0 c 1.473,0 1.8692,0.39619 1.8692,1.58474 0,0.79237 -0.3962,6.51164 -0.3962,6.51164 0,0 0.3962,5.35356 0.3962,6.14593 0,1.31045 -0.2743,1.70664 -1.7473,1.70664"
             style="fill:#231f20;fill-opacity:1;fill-rule:nonzero;stroke:none"
             id="path4380"
             inkscape:connector-curvature="0" />
          <path
             d="m 1361.5291,440.64735 c 0,0 0.2438,10.51411 0.2438,12.38328 0,1.06665 -0.2438,1.3003 -1.3105,1.46284 -0.5587,0.1219 -9.8842,0.91427 -12.3832,0.91427 l -39.4457,0 c -11.3472,0 -17.4626,-5.31293 -17.4626,-15.98958 0,-4.36818 1.7473,-9.96555 6.7859,-15.8372 l 33.056,-38.65333 c 2.9358,-3.33201 6.5116,-5.19103 6.5116,-6.1053 0,-0.55872 -0.2844,-0.833 -0.9143,-0.833 -1.7472,0 -5.2012,1.35109 -8.6957,1.35109 l -21.8206,0 c -6.664,0 -9.2036,1.18855 -9.8843,1.18855 -0.5079,0 -0.6298,-0.1219 -0.6298,-0.79237 0,-1.07681 0.3962,-7.86273 0.3962,-7.86273 0,0 -0.3962,-5.47546 -0.3962,-6.78592 0,-1.74727 0.3962,-1.85901 2.2654,-1.85901 1.859,0 6.7757,0.11174 11.3064,0.11174 l 42.6152,0 c 5.638,0 9.0919,3.61645 9.0919,9.88428 0,3.57582 -1.7473,7.0602 -5.0793,10.9103 l -39.1714,44.08816 c -4.6424,5.20119 -8.7668,6.94846 -8.7668,8.92938 0,1.62537 1.8285,2.26536 7.7002,2.26536 l 20.9063,0 c 3.6164,0 5.4755,1.35109 6.9485,1.35109 0.9142,0 1.5847,-0.80253 1.859,-2.94598 l 0.4063,-6.1053 c 0.1118,-1.47299 0.2743,-2.26536 1.1886,-2.26536 0.7923,0 8.5332,0.2438 8.5332,0.2438 0,0 4.5205,-0.2438 5.0792,-0.2438 1.3105,0 1.4629,0.2438 1.4629,1.43236 0,2.02155 -0.3962,9.76238 -0.3962,9.76238"
             style="fill:#231f20;fill-opacity:1;fill-rule:nonzero;stroke:none"
             id="path4382"
             inkscape:connector-curvature="0" />
          <path
             d="m 1454.0634,454.21919 c -3.0882,1.58473 -6.664,2.53964 -10.2703,2.53964 -11.9871,0 -17.1883,-6.55228 -17.1883,-18.65113 l 0,-18.52921 c 0,-4.64247 -0.6704,-5.88181 -2.5396,-5.88181 -1.859,0 -4.5206,2.14345 -7.0602,2.14345 l -21.4244,0 c -2.6616,0 -2.9358,1.86918 -2.9358,4.13454 l 0,25.46752 c 0,3.85009 0.6704,6.90782 0.6704,8.777 0,0.79236 -0.1625,1.35108 -1.0666,1.35108 -1.473,0 -8.6957,-0.55872 -8.6957,-0.55872 0,0 -6.1155,0.55872 -7.5783,0.55872 -1.981,0 -2.2654,-1.86917 -2.2654,-9.21381 l 0,-73.00959 c 0,-1.473 -0.1117,-5.03865 -0.1117,-7.74083 0,-1.85902 0.1117,-2.26536 1.4628,-2.26536 2.499,0 7.5783,0.40634 7.5783,0.40634 0,0 5.8716,-0.68062 8.6551,-0.68062 1.3511,0 1.6253,0.79237 1.6253,1.90981 0,2.65138 -0.2742,5.31293 -0.2742,7.81193 l 0,23.73041 c 0,2.02155 0.7923,3.33201 2.9358,3.33201 l 27.8141,0 c 2.2959,0 3.2101,-1.18856 3.2101,-3.45391 l 0,-23.84215 c 0,-2.26536 -0.2742,-4.53072 -0.2742,-6.67418 0,-1.46283 0.1625,-2.53964 1.8691,-2.53964 2.814,0 8.1269,0.40634 8.1269,0.40634 0,0 5.0793,-0.40634 7.7408,-0.40634 1.5847,0 1.5847,0.80253 1.5847,2.14346 0,1.99108 -0.1117,4.01263 -0.1117,6.11545 l 0,62.38374 c 0,3.56565 0.5079,6.26783 4.1244,6.26783 2.3771,0 4.2463,-2.02155 5.2012,-2.02155 0.7923,0 0.7923,0.67046 0.7923,1.22918 0,1.81839 -0.2844,6.50148 -0.2844,6.50148 0,0 0.5587,4.01264 0.5587,5.99356 0,0.79236 -0.7924,1.58473 -1.8692,2.26536"
             style="fill:#231f20;fill-opacity:1;fill-rule:nonzero;stroke:none"
             id="path4384"
             inkscape:connector-curvature="0" />
        </g>
        <g
           id="g4432">
          <path
             d="m 1517.0872,446.55963 c 0,-2.78345 -0.1219,-4.01263 -0.833,-4.01263 -1.1175,0 -1.7879,3.73835 -2.9054,4.68309 -2.2146,1.66601 -5.5567,2.49901 -8.1675,2.93583 -3.7282,2.22472 -6.1154,6.07482 -6.1154,12.02774 0,5.27229 2.499,8.05574 8.8887,8.05574 6.5117,0 9.1326,-2.93583 9.1326,-9.96555 l 0,-13.72422 z m 18.5698,-27.5805 0,38.09461 c 0,18.84414 -9.9655,27.30622 -28.8097,27.30622 -17.4625,0 -24.8072,-7.07036 -24.8072,-18.18383 0,-4.83547 1.2292,-8.68557 3.7384,-11.62139 1.2698,-1.35109 5.831,-2.34663 5.831,-3.7282 0,-1.22918 -5.6786,-1.51362 -7.5072,-2.22472 -14.9534,-5.67864 -22.0238,-20.63204 -22.0238,-43.88499 0,-30.07951 13.4601,-46.4348 37.4242,-46.4348 10.2398,0 17.3,2.22473 23.0193,7.61893 1.2292,1.11744 1.8996,1.39172 3.2914,1.39172 l 6.3897,0 c 0.833,0 1.2292,0.27428 1.2292,1.51363 0,2.499 -0.3962,9.72174 -0.3962,9.72174 0,0 0.3962,8.56367 0.3962,10.95093 0,1.62537 -0.6705,1.77775 -1.5035,1.77775 -0.2844,0 -6.1154,-0.15238 -6.1154,-0.15238 0,0 -5.1199,0.31492 -6.5117,0.31492 -0.9447,0 -1.2292,-0.7111 -1.2292,-1.82854 0,-9.72175 -5.9529,-14.84167 -15.7864,-14.84167 -12.7388,0 -19.9615,8.34018 -19.9615,29.64269 0,22.46058 6.3897,30.63823 19.6771,30.63823 10.7985,0 15.0855,-4.84564 15.0855,-11.6214 l 0,-4.17517 c 0,-2.06219 -0.3962,-4.83547 -0.3962,-6.2272 0,-0.67046 0.2743,-1.22918 1.7777,-1.22918 l 16.5077,0 c 1.666,0 2.1841,0.39618 2.1841,1.22918 0,1.26982 -1.5035,3.7282 -1.5035,5.95292"
             style="fill:#689dd4;fill-opacity:1;fill-rule:nonzero;stroke:none"
             id="path4386"
             inkscape:connector-curvature="0" />
          <path
             d="m 1586.6428,374.49478 c -12.6169,0 -18.966,8.21828 -18.966,33.13724 0,24.24849 5.9529,32.97469 18.8441,32.97469 12.5865,0 18.9762,-8.17764 18.9762,-32.85279 0,-24.53293 -5.9935,-33.25914 -18.8543,-33.25914 m -0.2742,82.30468 c -26.3513,0 -39.3645,-16.07085 -39.3645,-49.16744 0,-17.46257 3.6063,-31.47123 12.3427,-39.92316 12.0582,0 13.1756,-9.40683 27.8548,-9.40683 23.6897,0 39.0495,13.85628 39.0495,49.45189 0,34.5188 -14.5268,49.04554 -39.8825,49.04554"
             style="fill:#689dd4;fill-opacity:1;fill-rule:nonzero;stroke:none"
             id="path4388"
             inkscape:connector-curvature="0" />
        </g>
        <g
           id="g4427">
          <path
             inkscape:connector-curvature="0"
             id="path4417"
             style="fill:#231f20;fill-opacity:1;fill-rule:nonzero;stroke:none"
             d="m 1149.9807,345.21362 c 0,0.94474 -0.2743,1.34093 -1.3511,1.34093 l -5.0793,0 c -1.5441,0 -2.2145,0.39618 -3.332,1.19871 -7.1821,6.54211 -14.8823,9.20366 -25.5487,9.20366 -19.2099,0 -33.7366,-8.80748 -33.7366,-28.37287 0,-15.31911 8.5332,-19.72793 8.5332,-24.28912 0,-3.29138 -3.1695,-6.38974 -3.1695,-14.24231 0,-18.37684 12.8912,-27.81414 32.6191,-27.81414 8.5231,0 16.5382,1.18855 21.587,3.332 0.833,0.23365 1.5034,0.79237 1.5034,1.81839 0,1.0768 -1.6253,6.27799 -1.6253,6.27799 l -0.3962,7.33448 c 0,0.79237 -0.3962,1.35109 -1.0768,1.35109 -1.4629,0 -5.9936,-4.56119 -17.9705,-4.56119 -10.6767,0 -16.1115,3.60628 -16.1115,12.8201 0,6.26783 2.1028,9.83349 7.5783,9.83349 l 16.5077,0 c 1.5847,0 2.1434,0.16254 2.1434,1.74727 0,2.10283 -0.3962,6.38974 -0.3962,6.38974 0,0 0.3962,4.01263 0.3962,5.99355 0,1.62537 -0.6806,1.62537 -1.9809,1.62537 l -20.0022,0 c -5.7193,0 -8.137,3.57582 -8.137,9.96555 0,10.95093 6.2678,14.51659 17.5743,14.51659 10.0062,0 15.9997,-3.56566 15.9997,-14.63849 0,-1.35109 0.1118,-1.74727 1.6254,-1.74727 1.859,0.16253 5.5974,0.27428 5.5974,0.27428 0,0 4.2462,-0.27428 6.3897,-0.27428 1.3003,0 1.4628,0.39618 1.4628,1.74727 l 0,10.11793 0.3962,9.05128 z" />
          <path
             inkscape:connector-curvature="0"
             id="path4419"
             style="fill:#231f20;fill-opacity:1;fill-rule:nonzero;stroke:none"
             d="m 1188.502,276.95316 c -3.6063,0 -6.5015,0.1219 -8.2488,0.39618 -1.351,0.24381 -1.7472,0.91427 -1.7472,2.49901 0,1.74727 0.3962,5.20118 0.3962,8.13701 l 0,13.05375 c 0,3.34217 0.2742,4.57135 3.332,5.20118 1.9809,0.39619 4.9167,0.68063 7.5783,0.68063 9.0919,0 14.6791,-4.40882 14.6791,-15.31912 0,-10.00618 -5.3536,-14.64864 -15.9896,-14.64864 m 43.052,70.08392 0,5.59737 c 0,0.90411 -0.5486,1.46283 -1.3409,1.98092 -2.2654,1.18855 -5.2012,2.14346 -8.6958,2.14346 -9.4474,0 -14.3642,-3.7282 -19.8396,-13.61248 l -11.3065,-19.96157 c -1.0768,-1.86918 -1.7473,-2.41774 -3.6165,-2.81393 -1.859,-0.39618 -5.0386,-0.79236 -5.9935,-0.79236 -1.4629,0 -1.859,0.79236 -1.859,2.65138 l 0,31.47123 c 0,1.18855 -0.1219,1.86917 -1.473,1.86917 -2.6514,0 -8.645,-0.55872 -8.645,-0.55872 0,0 -5.5973,0.55872 -8.3706,0.55872 -0.5587,0 -0.9549,0 -0.9549,-0.68062 0,-1.06665 0.7923,-2.2552 0.7923,-3.33201 l 0,-84.99669 c 0,-1.58474 0.3962,-2.14346 1.4629,-2.41774 6.6741,-1.07681 17.5844,-1.70664 27.1843,-1.70664 22.2676,0 34.7626,9.72174 34.7626,28.21033 0,11.46902 -6.5116,20.27649 -14.3642,24.00468 -0.6705,0.28444 -1.4629,1.07681 -1.4629,1.86918 0,1.18855 2.5397,5.03865 10.118,17.17813 2.9358,4.64246 4.6831,6.38973 8.2487,6.38973 2.5397,0 3.4539,-1.06664 4.9269,-1.06664 0.5486,0 0.833,0.43681 0.833,1.06664 0,0.95491 -0.4063,4.92691 -0.4063,6.94846" />
          <path
             sodipodi:nodetypes="ccscssscccsscscssssccssscsc"
             inkscape:connector-curvature="0"
             id="path4421"
             d="m 1072.8382,262.03523 -61.1797,0.50782 c -1.5847,0 -1.7071,0.40711 -1.7071,1.74804 0,0.79237 0.3965,6.11524 0.3965,6.11524 0,0 -0.3965,5.74865 -0.3965,6.54101 0,1.19871 0.3963,1.59571 1.8692,1.59571 l 17.164,0 c 1.2953,0 2.2162,0.0707 2.8614,0.21679 l 0,18.03907 0,23.18164 0,18.52929 c 0,12.09885 5.2004,18.65039 17.1875,18.65039 3.6063,0 7.1813,-0.95433 10.2695,-2.53906 1.0768,-0.68063 1.8691,-1.47326 1.8691,-2.26562 0,-1.98092 -0.5586,-5.99414 -0.5586,-5.99414 0,0 0.2852,-4.68161 0.2852,-6.5 0,-0.55873 -7e-4,-1.23047 -0.793,-1.23047 -0.9549,0 -2.824,2.02148 -5.2011,2.02148 -3.6165,0 -4.1231,-2.70193 -4.1231,-6.26758 l 0,-50.92383 0.033,-0.002 c 0,-4.12437 0.5486,-4.91601 3.4844,-4.91601 l 18.5391,0 c 1.5949,0 1.748,-0.39616 1.748,-1.86914 0,-0.79238 -0.3965,-6.10547 -0.3965,-6.10547 0,0 0.3965,-6.15685 0.3965,-6.94922 0,-1.18855 -0.3969,-1.58399 -1.748,-1.58399 z"
             style="fill:#231f20;fill-opacity:1;fill-rule:nonzero;stroke:none" />
        </g>
      </g>
    </g>
  </g>
</svg>
